<svg xmlns="http://www.w3.org/2000/svg" width="37" height="37" fill="none"><path fill="#9747FF" d="M18.003 6.23c-3.26 0-3.669.014-4.949.073-1.277.058-2.15.26-2.913.557a5.877 5.877 0 0 0-2.126 1.384A5.891 5.891 0 0 0 6.63 10.37c-.297.763-.5 1.636-.557 2.913C6.016 14.563 6 14.973 6 18.23c0 3.26.014 3.667.072 4.948.059 1.277.261 2.15.558 2.912.306.79.716 1.46 1.384 2.126a5.876 5.876 0 0 0 2.125 1.385c.763.297 1.636.5 2.913.558 1.28.058 1.69.073 4.948.073 3.26 0 3.668-.015 4.948-.073 1.277-.058 2.15-.26 2.914-.558a5.871 5.871 0 0 0 2.124-1.385 5.892 5.892 0 0 0 1.386-2.125c.294-.764.497-1.636.557-2.913.058-1.28.073-1.688.073-4.948 0-3.259-.015-3.668-.073-4.948-.06-1.278-.262-2.15-.558-2.913a5.89 5.89 0 0 0-1.385-2.126 5.866 5.866 0 0 0-2.125-1.384c-.765-.296-1.637-.499-2.915-.557-1.28-.059-1.688-.073-4.948-.073h.004Zm-1.077 2.163h1.077c3.204 0 3.584.011 4.85.069 1.17.053 1.804.249 2.227.413.56.218.96.478 1.38.898.42.42.68.82.898 1.38.164.422.36 1.057.413 2.228.057 1.265.07 1.645.07 4.848 0 3.202-.013 3.582-.07 4.848-.054 1.17-.25 1.805-.413 2.227-.218.56-.479.96-.899 1.379-.42.42-.818.68-1.379.898-.422.165-1.058.36-2.228.413-1.265.058-1.645.07-4.85.07-3.204 0-3.584-.012-4.849-.07-1.17-.054-1.805-.25-2.228-.414a3.717 3.717 0 0 1-1.38-.897 3.72 3.72 0 0 1-.898-1.38c-.165-.422-.36-1.057-.414-2.227-.057-1.265-.069-1.646-.069-4.85 0-3.205.012-3.583.07-4.848.053-1.17.248-1.806.413-2.229.217-.56.478-.96.898-1.38.42-.42.82-.68 1.38-.898.423-.165 1.058-.36 2.228-.414 1.107-.05 1.536-.065 3.773-.067v.003Zm7.483 1.993a1.44 1.44 0 1 0 0 2.88 1.44 1.44 0 0 0 0-2.88Zm-6.406 1.682a6.163 6.163 0 1 0 0 12.327 6.163 6.163 0 0 0 0-12.327Zm0 2.163a4 4 0 1 1 0 8 4 4 0 0 1 0-8Z"/></svg>