<svg xmlns="http://www.w3.org/2000/svg" width="240" height="106" fill="none"><path fill="#fff" d="M16.547 43.771h3.581v24.106h-3.581V56.754h-10.9v11.123h-3.58V43.771h3.58v9.401h10.9v-9.4ZM31.603 68.325c-1.585 0-3.03-.408-4.34-1.223a9.167 9.167 0 0 1-3.116-3.271c-.77-1.378-1.154-2.899-1.154-4.563 0-1.263.224-2.44.672-3.53a9.223 9.223 0 0 1 1.842-2.893 8.64 8.64 0 0 1 2.755-1.963 8.037 8.037 0 0 1 3.34-.706c1.32 0 2.532.276 3.634.827a8.277 8.277 0 0 1 2.824 2.255 9.276 9.276 0 0 1 1.721 3.306c.368 1.24.477 2.56.328 3.96H26.832c.15.793.436 1.51.861 2.153.436.631.987 1.13 1.653 1.498.677.367 1.43.557 2.256.568.872 0 1.664-.218 2.376-.654a5.148 5.148 0 0 0 1.773-1.808l3.633.844a9.074 9.074 0 0 1-3.116 3.753c-1.39.965-2.945 1.447-4.666 1.447Zm-4.89-10.538h9.78a5.015 5.015 0 0 0-.879-2.238 5.045 5.045 0 0 0-1.739-1.602 4.429 4.429 0 0 0-2.272-.602c-.815 0-1.573.195-2.273.585a5.097 5.097 0 0 0-1.722 1.601 5.82 5.82 0 0 0-.895 2.256ZM58.457 57.081v10.796h-3.582v-9.918c0-.769-.19-1.47-.568-2.1a4.077 4.077 0 0 0-1.498-1.498c-.62-.38-1.32-.569-2.1-.569-.758 0-1.453.19-2.084.569a4.211 4.211 0 0 0-1.515 1.498 4.005 4.005 0 0 0-.569 2.1v9.918H42.96V50.659h3.581v1.825a6.424 6.424 0 0 1 2.204-1.688 6.512 6.512 0 0 1 2.824-.62c1.274 0 2.434.31 3.478.93a6.894 6.894 0 0 1 2.48 2.497c.62 1.044.93 2.204.93 3.478ZM67.06 68.204a9.574 9.574 0 0 1-2.653-.55 7.782 7.782 0 0 1-2.272-1.258 5.228 5.228 0 0 1-1.447-1.894l3.048-1.308c.15.31.408.614.775.912.379.299.82.545 1.326.74a4.598 4.598 0 0 0 1.584.276c.54 0 1.039-.075 1.498-.224.47-.16.855-.402 1.153-.723.299-.321.448-.706.448-1.154 0-.505-.172-.895-.516-1.17-.333-.287-.752-.505-1.257-.655a74.77 74.77 0 0 0-1.516-.43 15.352 15.352 0 0 1-3.099-1.033c-.93-.448-1.67-1.016-2.221-1.705-.551-.7-.827-1.555-.827-2.566 0-1.102.299-2.054.896-2.858a5.813 5.813 0 0 1 2.341-1.877 7.55 7.55 0 0 1 3.117-.654c1.377 0 2.64.293 3.788.878 1.148.586 2.026 1.39 2.634 2.41l-2.84 1.688a2.8 2.8 0 0 0-.775-.93 4.162 4.162 0 0 0-1.171-.654 4.246 4.246 0 0 0-1.36-.293 4.747 4.747 0 0 0-1.636.207c-.494.15-.89.39-1.188.723-.299.333-.448.758-.448 1.274 0 .506.178.884.534 1.137.356.24.803.436 1.343.585.55.15 1.113.316 1.687.5 1.022.321 1.98.717 2.876 1.188.895.459 1.618 1.027 2.17 1.704.55.677.814 1.504.791 2.48 0 1.079-.327 2.026-.981 2.84-.643.816-1.481 1.436-2.514 1.86a7.386 7.386 0 0 1-3.289.534ZM76.103 61.42V50.658h3.581v9.884c0 .769.19 1.47.569 2.1a4.353 4.353 0 0 0 1.515 1.516 4.07 4.07 0 0 0 2.083.55 4.01 4.01 0 0 0 2.084-.55 4.21 4.21 0 0 0 1.498-1.515A4.005 4.005 0 0 0 88 60.542v-9.884h3.581l.018 17.219h-3.582l-.017-1.86a6.254 6.254 0 0 1-2.187 1.688 6.474 6.474 0 0 1-2.806.62c-1.275 0-2.434-.31-3.479-.93a7.031 7.031 0 0 1-2.496-2.497c-.62-1.044-.93-2.204-.93-3.478ZM95.053 50.658h3.581v17.219h-3.581V50.659Zm1.825-2.496c-.551 0-1.01-.178-1.378-.534-.367-.356-.55-.803-.55-1.343 0-.528.183-.97.55-1.326.368-.367.821-.55 1.36-.55.529 0 .976.183 1.344.55.367.356.55.798.55 1.326 0 .54-.183.987-.55 1.343-.356.356-.798.534-1.326.534Z"/><g clip-path="url(#a)"><path fill="#fff" fill-rule="evenodd" d="M143.5 99.819 108.569 6.605a.64.64 0 0 0-.826-.368l-1.67.64a.64.64 0 0 0-.368.825l36.409 92.785.072.19c.264.703.467 1.246 1.194.967.726-.279.475-.92.194-1.636l-.074-.19Zm-5.297 2.246L93.315 13.073a.639.639 0 0 1 .29-.857l1.602-.794a.64.64 0 0 1 .856.29l14.373 29.616 29.085 59.942.091.18c.347.688.657 1.304-.041 1.649-.28.139-.488.137-.658.044-.255-.141-.426-.493-.622-.899l-.088-.179Z" clip-rule="evenodd"/></g><path fill="#fff" d="m138.139 56.899 3.175 3.254a53.08 53.08 0 0 1 1.679-2.44c1.05-1.444 2.913-4.015 3.962-5.353.735-.945 1.286-.97 2.125-.131.971.944 3.28 3.49 4.828 5.3a465.594 465.594 0 0 1 5.51 6.717l2.886-3.123c-2.02-2.151-4.696-5.037-6.454-6.926-1.575-1.68-3.595-3.779-5.353-5.458-2.046-1.915-3.594-1.627-5.142.236-1.811 2.152-3.857 4.723-5.038 5.904-.813.813-1.391 1.364-2.178 2.02ZM168.549 44.856l-2.493 2.65c1.915 1.312 5.221 4.172 6.586 5.641l2.676-2.729c-1.548-1.6-4.959-4.329-6.769-5.562Zm-3.306 17.474 2.23 3.464c3.673-.63 7.058-2.073 9.734-3.674 4.224-2.545 7.714-6.165 9.682-9.734l-2.02-3.673c-1.68 3.542-5.091 7.53-9.577 10.206-2.545 1.496-5.93 2.834-10.049 3.411ZM208.757 47.034l-2.125-1.6c-.551.183-1.574.314-2.729.314h-9.262c-.761 0-2.387-.079-3.096-.184v3.752c.577-.052 2.02-.183 3.096-.183h8.921c-.603 1.863-2.204 4.46-3.936 6.428-2.466 2.729-6.507 5.93-10.757 7.504l2.729 2.834c4.066-1.916 8.028-5.17 10.967-8.554 2.256-2.624 4.198-6.192 5.274-8.685.236-.55.708-1.338.918-1.626Zm-5.851 8.133-2.466 2.44c2.807 2.546 5.667 5.668 7.609 8.37l2.991-2.597c-1.706-2.1-5.431-6.009-8.134-8.213ZM213.716 54.616l1.627 3.306c4.145-1.233 8.396-3.2 11.361-4.959 3.096-1.863 6.297-4.329 8.684-6.743l-2.833-2.676c-1.706 2.073-4.697 4.697-7.373 6.35-2.939 1.81-6.769 3.515-11.466 4.722Zm10.915-3.017V62.54c0 1.155-.105 2.807-.21 3.437h4.172c-.184-.656-.236-2.282-.236-3.437V50.707l-3.726.892Z"/><defs><clipPath id="a"><path fill="#fff" d="m99.447 1.396 76.263 42.108-33.833 61.275-76.262-42.107z"/></clipPath></defs></svg>