<svg xmlns="http://www.w3.org/2000/svg" width="440" height="21" fill="none"><g clip-path="url(#a)"><path fill="#29005F" fill-rule="evenodd" d="M15.673 19.806 8.643 1.048a.129.129 0 0 0-.165-.074l-.337.129c-.066.025-.099.1-.074.166l7.327 18.671.015.038c.053.142.093.251.24.195.146-.056.095-.185.039-.33a3.362 3.362 0 0 1-.015-.037Zm-1.066.452L5.574 2.35a.129.129 0 0 1 .058-.173l.323-.16a.129.129 0 0 1 .172.059l2.892 5.96 5.853 12.062.019.036c.07.138.132.262-.009.332-.056.028-.098.027-.132.009-.051-.029-.086-.1-.125-.181a3.885 3.885 0 0 0-.018-.036Z" clip-rule="evenodd"/></g><g clip-path="url(#b)"><path fill="#29005F" fill-rule="evenodd" d="m24.648.998 7.03 18.757c.026.067.1.1.167.074l.336-.128c.066-.026.1-.1.074-.167L24.927.864a2.443 2.443 0 0 1-.015-.038c-.053-.142-.094-.251-.24-.195-.146.056-.096.185-.039.33l.015.037Zm1.066-.452 9.034 17.907a.129.129 0 0 1-.058.173l-.322.16a.129.129 0 0 1-.173-.059l-2.892-5.96L25.449.708 25.43.67c-.07-.139-.132-.262.009-.332.056-.028.098-.028.132-.009.051.029.086.1.125.181l.018.036Z" clip-rule="evenodd"/></g><g clip-path="url(#c)"><path fill="#29005F" fill-rule="evenodd" d="m52.008 19.806-7.03-18.758a.129.129 0 0 0-.166-.074l-.336.129c-.066.025-.1.1-.074.166l7.327 18.671.014.038c.053.142.094.251.24.195.146-.056.096-.185.04-.33a3.362 3.362 0 0 1-.016-.037Zm-1.067.452L41.91 2.35a.129.129 0 0 1 .058-.173l.322-.16a.129.129 0 0 1 .173.059l2.892 5.96 5.853 12.062.018.036c.07.138.132.262-.008.332-.056.028-.099.027-.133.009-.051-.029-.085-.1-.125-.181l-.018-.036Z" clip-rule="evenodd"/></g><g clip-path="url(#d)"><path fill="#29005F" fill-rule="evenodd" d="m59.915.998 7.031 18.757c.026.067.1.1.166.074l.337-.128c.066-.026.099-.1.073-.167L60.194.864a4.19 4.19 0 0 1-.014-.038c-.053-.142-.094-.251-.24-.195-.147.056-.096.185-.04.33l.015.037Zm1.066-.452 9.035 17.907a.129.129 0 0 1-.059.173l-.322.16a.129.129 0 0 1-.172-.059l-2.893-5.96L60.716.708 60.698.67c-.07-.139-.133-.262.008-.332.056-.028.098-.028.132-.009.052.029.086.1.126.181l.017.036Z" clip-rule="evenodd"/></g><g clip-path="url(#e)"><path fill="#29005F" fill-rule="evenodd" d="m88.342 19.806-7.03-18.758a.129.129 0 0 0-.166-.074l-.336.129c-.066.025-.1.1-.074.166l7.327 18.671.014.038c.053.142.094.251.24.195.147-.056.096-.185.04-.33l-.015-.037Zm-1.066.452L78.243 2.35a.129.129 0 0 1 .058-.173l.323-.16a.129.129 0 0 1 .172.059l2.892 5.96 5.853 12.062.018.036c.07.138.133.262-.008.332-.056.028-.098.027-.132.009-.052-.029-.086-.1-.126-.181l-.017-.036Z" clip-rule="evenodd"/></g><g clip-path="url(#f)"><path fill="#29005F" fill-rule="evenodd" d="m97.317.998 7.031 18.757c.025.067.099.1.166.074l.336-.128a.13.13 0 0 0 .074-.167L97.596.864a4.19 4.19 0 0 1-.015-.038c-.053-.142-.094-.251-.24-.195-.146.056-.096.185-.04.33l.016.037Zm1.066-.452 9.034 17.907a.128.128 0 0 1-.058.173l-.323.16a.129.129 0 0 1-.172-.059l-2.893-5.96L98.117.708A3.134 3.134 0 0 0 98.1.67c-.07-.139-.132-.262.008-.332.057-.028.099-.028.133-.009.051.029.085.1.125.181l.018.036Z" clip-rule="evenodd"/></g><g clip-path="url(#g)"><path fill="#29005F" fill-rule="evenodd" d="m124.676 19.806-7.029-18.758a.128.128 0 0 0-.166-.074l-.336.129c-.067.025-.1.1-.074.166l7.326 18.671.015.038c.053.142.094.251.24.195.146-.056.096-.185.039-.33a7.628 7.628 0 0 1-.015-.037Zm-1.066.452L114.577 2.35a.129.129 0 0 1 .059-.173l.322-.16a.128.128 0 0 1 .172.059l2.893 5.96 5.852 12.062a.669.669 0 0 1 .019.036c.07.138.132.262-.009.332-.056.028-.098.027-.132.009-.051-.029-.085-.1-.125-.181l-.018-.036Z" clip-rule="evenodd"/></g><g clip-path="url(#h)"><path fill="#29005F" fill-rule="evenodd" d="m133.651.998 7.031 18.757c.025.067.1.1.166.074l.336-.128c.067-.026.1-.1.074-.167L133.93.864l-.014-.038c-.053-.142-.094-.251-.241-.195-.146.056-.095.185-.039.33l.015.037Zm1.066-.452 9.034 17.907h.001a.129.129 0 0 1-.059.173l-.322.16a.13.13 0 0 1-.173-.059l-2.892-5.96-5.854-12.06a6.373 6.373 0 0 0-.018-.037c-.07-.139-.133-.262.008-.332.056-.028.098-.028.132-.009.052.029.086.1.125.181l.018.036Z" clip-rule="evenodd"/></g><g clip-path="url(#i)"><path fill="#29005F" fill-rule="evenodd" d="m161.011 19.806-7.03-18.758a.128.128 0 0 0-.166-.074l-.336.129a.13.13 0 0 0-.074.166l7.327 18.671.014.038c.053.142.094.251.24.195.147-.056.096-.185.039-.33l-.014-.037Zm-1.066.452L150.912 2.35a.128.128 0 0 1 .058-.173l.322-.16a.13.13 0 0 1 .173.059l2.892 5.96 5.853 12.062.018.036c.07.138.132.262-.008.332-.056.028-.098.027-.133.009-.051-.029-.085-.1-.125-.181l-.017-.036Z" clip-rule="evenodd"/></g><g clip-path="url(#j)"><path fill="#29005F" fill-rule="evenodd" d="m169.986.998 7.03 18.757c.026.067.1.1.167.074l.336-.128a.13.13 0 0 0 .074-.167L170.264.864l-.014-.038c-.053-.142-.094-.251-.24-.195-.146.056-.096.185-.039.33l.015.037Zm1.065-.452 9.035 17.907a.13.13 0 0 1-.058.173l-.323.16a.128.128 0 0 1-.172-.059l-2.893-5.96-5.854-12.06a6.373 6.373 0 0 0-.018-.037c-.07-.139-.132-.262.008-.332.056-.028.098-.028.133-.009.051.029.085.1.125.181l.017.036Z" clip-rule="evenodd"/></g><g clip-path="url(#k)"><path fill="#29005F" fill-rule="evenodd" d="m197.345 19.806-7.029-18.758a.129.129 0 0 0-.166-.074l-.337.129a.13.13 0 0 0-.074.166l7.327 18.671.015.038c.053.142.094.251.24.195.146-.056.095-.185.039-.33a7.628 7.628 0 0 1-.015-.037Zm-1.066.452L187.246 2.35a.13.13 0 0 1 .058-.173l.323-.16a.128.128 0 0 1 .172.059l2.892 5.96 5.853 12.062a.603.603 0 0 0 .019.036c.069.138.132.262-.009.332-.056.028-.098.027-.132.009-.051-.029-.086-.1-.125-.181l-.018-.036Z" clip-rule="evenodd"/></g><g clip-path="url(#l)"><path fill="#29005F" fill-rule="evenodd" d="m205.253.998 7.031 18.757c.025.067.1.1.166.074l.336-.128a.13.13 0 0 0 .074-.167L205.532.864a3.701 3.701 0 0 0-.015-.038c-.053-.142-.094-.251-.24-.195-.146.056-.096.185-.039.33l.015.037Zm1.066-.452 9.034 17.907a.128.128 0 0 1-.058.173l-.322.16a.13.13 0 0 1-.173-.059l-2.892-5.96-5.854-12.06-.019-.037c-.069-.139-.132-.262.009-.332.056-.028.098-.028.132-.009.051.029.086.1.125.181l.018.036Z" clip-rule="evenodd"/></g><g clip-path="url(#m)"><path fill="#29005F" fill-rule="evenodd" d="M233.679 19.806 226.65 1.048a.128.128 0 0 0-.166-.074l-.336.129c-.066.025-.1.1-.074.166l7.327 18.671.014.038c.053.142.094.251.24.195.146-.056.096-.185.039-.33a7.628 7.628 0 0 1-.015-.037Zm-1.065.452L223.581 2.35h-.001a.129.129 0 0 1 .059-.173l.322-.16a.13.13 0 0 1 .173.059l2.892 5.96 5.853 12.062.018.036c.07.138.132.262-.008.332-.057.028-.099.027-.133.009-.051-.029-.085-.1-.125-.181l-.017-.036Z" clip-rule="evenodd"/></g><g clip-path="url(#n)"><path fill="#29005F" fill-rule="evenodd" d="m242.654.998 7.031 18.757c.026.067.1.1.166.074l.336-.128c.067-.026.1-.1.074-.167L242.933.864l-.014-.038c-.053-.142-.094-.251-.24-.195-.147.056-.096.185-.039.33l.014.037Zm1.066-.452 9.035 17.907a.129.129 0 0 1-.059.173l-.322.16a.128.128 0 0 1-.172-.059l-2.893-5.96-5.854-12.06a6.373 6.373 0 0 0-.018-.037c-.07-.139-.133-.262.008-.332.056-.028.098-.028.132-.009.052.029.086.1.126.181l.017.036Z" clip-rule="evenodd"/></g><g clip-path="url(#o)"><path fill="#29005F" fill-rule="evenodd" d="m270.014 19.806-7.029-18.758h-.001a.128.128 0 0 0-.166-.074l-.336.129a.13.13 0 0 0-.074.166l7.327 18.671.014.038c.053.142.094.251.24.195.147-.056.096-.185.04-.33a7.628 7.628 0 0 1-.015-.037Zm-1.066.452L259.915 2.35a.128.128 0 0 1 .058-.173l.323-.16a.129.129 0 0 1 .172.059l2.892 5.96 5.853 12.062.018.036c.07.138.133.262-.008.332-.056.028-.098.027-.132.009-.052-.029-.086-.1-.126-.181a.68.68 0 0 0-.017-.036Z" clip-rule="evenodd"/></g><g clip-path="url(#p)"><path fill="#29005F" fill-rule="evenodd" d="m278.989.998 7.031 18.757c.025.067.099.1.166.074l.336-.128a.13.13 0 0 0 .074-.167L279.268.864a3.701 3.701 0 0 0-.015-.038c-.053-.142-.094-.251-.24-.195-.146.056-.096.185-.039.33l.015.037Zm1.066-.452 9.034 17.907a.128.128 0 0 1-.058.173l-.323.16a.129.129 0 0 1-.172-.059l-2.893-5.96-5.854-12.06a6.44 6.44 0 0 0-.018-.037c-.07-.139-.132-.262.008-.332.057-.028.099-.028.133-.009.051.029.085.1.125.181l.018.036Z" clip-rule="evenodd"/></g><g clip-path="url(#q)"><path fill="#29005F" fill-rule="evenodd" d="m306.348 19.806-7.029-18.758a.129.129 0 0 0-.166-.074l-.336.129c-.067.025-.1.1-.074.166l7.326 18.671.015.038c.053.142.094.251.24.195.146-.056.096-.185.039-.33a7.628 7.628 0 0 1-.015-.037Zm-1.066.452L296.249 2.35a.129.129 0 0 1 .059-.173l.322-.16a.128.128 0 0 1 .172.059l2.893 5.96 5.852 12.062.019.036c.069.138.132.262-.009.332-.056.028-.098.027-.132.009-.051-.029-.086-.1-.125-.181l-.018-.036Z" clip-rule="evenodd"/></g><g clip-path="url(#r)"><path fill="#29005F" fill-rule="evenodd" d="m315.323.998 7.031 18.757c.025.067.1.1.166.074l.336-.128c.067-.026.1-.1.074-.167L315.602.864l-.014-.038c-.054-.142-.094-.251-.241-.195-.146.056-.095.185-.039.33l.015.037Zm1.066-.452 9.034 17.907h.001a.129.129 0 0 1-.059.173l-.322.16a.13.13 0 0 1-.173-.059l-2.892-5.96-5.854-12.06a6.406 6.406 0 0 0-.018-.037c-.07-.139-.133-.262.008-.332.056-.028.098-.028.132-.009.052.029.086.1.125.181l.018.036Z" clip-rule="evenodd"/></g><g clip-path="url(#s)"><path fill="#29005F" fill-rule="evenodd" d="m342.683 19.806-7.03-18.758a.128.128 0 0 0-.166-.074l-.336.129a.13.13 0 0 0-.074.166l7.327 18.671.014.038c.053.142.094.251.24.195.147-.056.096-.185.039-.33a.545.545 0 0 1-.014-.037Zm-1.066.452L332.584 2.35a.128.128 0 0 1 .058-.173l.323-.16a.129.129 0 0 1 .172.059l2.892 5.96 5.853 12.062.018.036c.07.138.132.262-.008.332-.056.028-.098.027-.133.009-.051-.029-.085-.1-.125-.181l-.017-.036Z" clip-rule="evenodd"/></g><g clip-path="url(#t)"><path fill="#29005F" fill-rule="evenodd" d="m351.657.998 7.031 18.757c.026.067.1.1.167.074l.336-.128a.13.13 0 0 0 .074-.167L351.936.864l-.014-.038c-.053-.142-.094-.251-.24-.195-.146.056-.096.185-.039.33l.014.037Zm1.066-.452 9.035 17.907a.13.13 0 0 1-.058.173l-.323.16a.128.128 0 0 1-.172-.059l-2.893-5.96-5.854-12.06a6.373 6.373 0 0 0-.018-.037c-.07-.139-.132-.262.008-.332.056-.028.098-.028.133-.009.051.029.085.1.125.181l.017.036Z" clip-rule="evenodd"/></g><g clip-path="url(#u)"><path fill="#29005F" fill-rule="evenodd" d="m379.017 19.806-7.029-18.758a.129.129 0 0 0-.166-.074l-.337.129a.13.13 0 0 0-.074.166l7.327 18.671.015.038c.053.142.094.251.24.195.146-.056.095-.185.039-.33a7.628 7.628 0 0 1-.015-.037Zm-1.066.452L368.918 2.35a.13.13 0 0 1 .058-.173l.323-.16a.128.128 0 0 1 .172.059l2.892 5.96 5.853 12.062a.603.603 0 0 0 .019.036c.069.138.132.262-.009.332-.056.028-.098.027-.132.009-.051-.029-.086-.1-.125-.181a4.025 4.025 0 0 1-.018-.036Z" clip-rule="evenodd"/></g><g clip-path="url(#v)"><path fill="#29005F" fill-rule="evenodd" d="m387.992.998 7.031 18.757c.025.067.1.1.166.074l.336-.128a.13.13 0 0 0 .074-.167L388.271.864a3.71 3.71 0 0 0-.015-.038c-.053-.142-.094-.251-.24-.195-.146.056-.095.185-.039.33l.015.037Zm1.066-.452 9.034 17.907a.128.128 0 0 1-.058.173l-.322.16a.13.13 0 0 1-.173-.059l-2.892-5.96-5.854-12.06a.575.575 0 0 0-.019-.037c-.069-.139-.132-.262.009-.332.056-.028.098-.028.132-.009.051.029.086.1.125.181l.018.036Z" clip-rule="evenodd"/></g><g clip-path="url(#w)"><path fill="#29005F" fill-rule="evenodd" d="m415.351 19.806-7.029-18.758a.128.128 0 0 0-.166-.074l-.336.129c-.066.025-.1.1-.074.166l7.327 18.671.014.038c.053.142.094.251.24.195.146-.056.096-.185.039-.33a7.628 7.628 0 0 1-.015-.037Zm-1.065.452L405.253 2.35h-.001a.129.129 0 0 1 .059-.173l.322-.16a.13.13 0 0 1 .173.059l2.892 5.96 5.853 12.062.018.036c.07.138.132.262-.008.332-.057.028-.098.027-.133.009-.051-.029-.085-.1-.125-.181l-.017-.036Z" clip-rule="evenodd"/></g><g clip-path="url(#x)"><path fill="#29005F" fill-rule="evenodd" d="m424.326.998 7.031 18.757c.026.067.1.1.166.074l.336-.128c.067-.026.1-.1.074-.167L424.605.864l-.014-.038c-.053-.142-.094-.251-.24-.195-.147.056-.096.185-.04.33l.015.037Zm1.066-.452 9.035 17.907a.129.129 0 0 1-.059.173l-.322.16a.128.128 0 0 1-.172-.059l-2.893-5.96-5.854-12.06a6.373 6.373 0 0 0-.018-.037c-.07-.139-.133-.262.008-.332.056-.028.098-.028.132-.009.052.029.086.1.126.181l.017.036Z" clip-rule="evenodd"/></g><defs><clipPath id="a"><path fill="#fff" d="m6.808 0 15.346 8.473-6.808 12.33L0 12.33z"/></clipPath><clipPath id="b"><path fill="#fff" d="m33.514 20.803-15.346-8.472L24.975.001l15.347 8.471z"/></clipPath><clipPath id="c"><path fill="#fff" d="m43.143 0 15.346 8.473-6.808 12.33-15.346-8.473z"/></clipPath><clipPath id="d"><path fill="#fff" d="m69.849 20.803-15.347-8.472L61.309.001l15.347 8.471z"/></clipPath><clipPath id="e"><path fill="#fff" d="m79.477 0 15.346 8.473-6.808 12.33L72.67 12.33z"/></clipPath><clipPath id="f"><path fill="#fff" d="m106.183 20.803-15.347-8.472L97.643.001l15.347 8.471z"/></clipPath><clipPath id="g"><path fill="#fff" d="m115.811 0 15.346 8.473-6.808 12.33-15.346-8.473z"/></clipPath><clipPath id="h"><path fill="#fff" d="m142.518 20.803-15.347-8.472 6.807-12.33 15.347 8.471z"/></clipPath><clipPath id="i"><path fill="#fff" d="m152.146 0 15.346 8.473-6.808 12.33-15.346-8.473z"/></clipPath><clipPath id="j"><path fill="#fff" d="m178.852 20.803-15.347-8.472 6.807-12.33 15.347 8.471z"/></clipPath><clipPath id="k"><path fill="#fff" d="m188.48 0 15.346 8.473-6.808 12.33-15.346-8.473z"/></clipPath><clipPath id="l"><path fill="#fff" d="m215.186 20.803-15.347-8.472 6.807-12.33 15.347 8.471z"/></clipPath><clipPath id="m"><path fill="#fff" d="m224.815 0 15.346 8.473-6.808 12.33-15.346-8.473z"/></clipPath><clipPath id="n"><path fill="#fff" d="m251.521 20.803-15.347-8.472 6.807-12.33 15.347 8.471z"/></clipPath><clipPath id="o"><path fill="#fff" d="m261.149 0 15.346 8.473-6.808 12.33-15.346-8.473z"/></clipPath><clipPath id="p"><path fill="#fff" d="m287.855 20.803-15.347-8.472 6.807-12.33 15.347 8.471z"/></clipPath><clipPath id="q"><path fill="#fff" d="m297.483 0 15.346 8.473-6.808 12.33-15.346-8.473z"/></clipPath><clipPath id="r"><path fill="#fff" d="m324.19 20.803-15.347-8.472L315.65.001l15.347 8.471z"/></clipPath><clipPath id="s"><path fill="#fff" d="m333.818 0 15.346 8.473-6.808 12.33-15.346-8.473z"/></clipPath><clipPath id="t"><path fill="#fff" d="m360.524 20.803-15.347-8.472 6.807-12.33 15.347 8.471z"/></clipPath><clipPath id="u"><path fill="#fff" d="m370.152 0 15.346 8.473-6.808 12.33-15.346-8.473z"/></clipPath><clipPath id="v"><path fill="#fff" d="m396.859 20.803-15.347-8.472L388.32.001l15.347 8.471z"/></clipPath><clipPath id="w"><path fill="#fff" d="m406.487 0 15.346 8.473-6.808 12.33-15.346-8.473z"/></clipPath><clipPath id="x"><path fill="#fff" d="m433.193 20.803-15.347-8.472 6.807-12.33L440 8.471z"/></clipPath></defs></svg>