<svg xmlns="http://www.w3.org/2000/svg" width="37" height="37" fill="none"><path fill="#9747FF" d="M6.551 25.98c2.68.15 5.023-.476 7.309-2.134-2.309-.395-3.91-1.45-4.78-3.631.673-.093 1.264.08 1.96-.198-2.273-.997-3.746-2.494-3.804-5.08.719.057 1.264.533 2.122.463-2.088-2.041-2.726-4.269-1.415-6.972 2.181 2.506 4.733 4.211 7.854 5.012.174.046.336.093.51.128.8.185 1.752.58 2.24.521.834-.104 0-1.067.208-2.32.661-3.897 4.953-5.672 8.132-3.387.928.673 1.659.661 2.575.255.476-.209.963-.417 1.531-.661-.127 1.114-.986 1.729-1.67 2.552.777.174 1.404-.046 2.123-.278-.244.8-.847 1.253-1.392 1.693-.569.453-.79.928-.812 1.67-.348 11.242-13.12 19.93-21.856 13.017-.846-.673-.023 0-.835-.65Z"/></svg>